<svg xmlns="http://www.w3.org/2000/svg" viewBox="0 0 24 24" width="24" height="24">
<path d="M2 13.5L5.2 5.6A2 2 0 0 1 7 4.5h10a2 2 0 0 1 1.8 1.1L22 13.5v5a2 2 0 0 1-2 2H4a2 2 0 0 1-2-2z" fill="none" stroke="#fff" stroke-width="1.1" stroke-linecap="round" stroke-linejoin="round"/>
<path d="M2 13.5h20" fill="none" stroke="#fff" stroke-width="1.1" stroke-linecap="round" stroke-linejoin="round"/>
<path d="M5 17a1 1 0 1 0 2 0a1 1 0 1 0 -2 0z" fill="#fff" stroke="#fff" stroke-width="1.1" stroke-linecap="round" stroke-linejoin="round"/>
<path d="M8.5 17a1 1 0 1 0 2 0a1 1 0 1 0 -2 0z" fill="#fff" stroke="#fff" stroke-width="1.1" stroke-linecap="round" stroke-linejoin="round"/>
</svg>
